<svg xmlns="http://www.w3.org/2000/svg" viewBox="0 0 739 179" width="739" height="179" role="img" aria-label="GitHub contribution heatmap for paivafinance">
<style>
text{font-family:ui-monospace,SFMono-Regular,'Cascadia Code',Consolas,Menlo,monospace}
.c{opacity:0;animation:drop .4s cubic-bezier(.2,.7,.3,1) forwards}
.f{opacity:0;animation:fade .6s ease-out 1.4s forwards}
@keyframes drop{from{opacity:0;transform:translateY(-8px)}to{opacity:1;transform:translateY(0)}}
@keyframes fade{to{opacity:1}}
@media (prefers-reduced-motion:reduce){.c,.f{animation:none;opacity:1}}
</style>
<rect x="0.5" y="0.5" width="738" height="178" rx="12" fill="#0d1117" stroke="#30363d"/>
<text class="f" x="52" y="28" font-size="11" fill="#8b949e">Aug</text>
<text class="f" x="117" y="28" font-size="11" fill="#8b949e">Sep</text>
<text class="f" x="169" y="28" font-size="11" fill="#8b949e">Oct</text>
<text class="f" x="221" y="28" font-size="11" fill="#8b949e">Nov</text>
<text class="f" x="286" y="28" font-size="11" fill="#8b949e">Dec</text>
<text class="f" x="338" y="28" font-size="11" fill="#8b949e">Jan</text>
<text class="f" x="390" y="28" font-size="11" fill="#8b949e">Feb</text>
<text class="f" x="442" y="28" font-size="11" fill="#8b949e">Mar</text>
<text class="f" x="507" y="28" font-size="11" fill="#8b949e">Apr</text>
<text class="f" x="559" y="28" font-size="11" fill="#8b949e">May</text>
<text class="f" x="624" y="28" font-size="11" fill="#8b949e">Jun</text>
<text class="f" x="676" y="28" font-size="11" fill="#8b949e">Jul</text>
<rect class="c" x="26" y="40" width="11" height="11" rx="2.5" fill="#161b22" style="animation-delay:0.00s"/>
<rect class="c" x="26" y="53" width="11" height="11" rx="2.5" fill="#161b22" style="animation-delay:0.02s"/>
<rect class="c" x="26" y="66" width="11" height="11" rx="2.5" fill="#161b22" style="animation-delay:0.04s"/>
<rect class="c" x="26" y="79" width="11" height="11" rx="2.5" fill="#161b22" style="animation-delay:0.06s"/>
<rect class="c" x="26" y="92" width="11" height="11" rx="2.5" fill="#161b22" style="animation-delay:0.08s"/>
<rect class="c" x="26" y="105" width="11" height="11" rx="2.5" fill="#161b22" style="animation-delay:0.10s"/>
<rect class="c" x="26" y="118" width="11" height="11" rx="2.5" fill="#161b22" style="animation-delay:0.12s"/>
<rect class="c" x="39" y="40" width="11" height="11" rx="2.5" fill="#161b22" style="animation-delay:0.02s"/>
<rect class="c" x="39" y="53" width="11" height="11" rx="2.5" fill="#161b22" style="animation-delay:0.04s"/>
<rect class="c" x="39" y="66" width="11" height="11" rx="2.5" fill="#161b22" style="animation-delay:0.06s"/>
<rect class="c" x="39" y="79" width="11" height="11" rx="2.5" fill="#161b22" style="animation-delay:0.08s"/>
<rect class="c" x="39" y="92" width="11" height="11" rx="2.5" fill="#161b22" style="animation-delay:0.10s"/>
<rect class="c" x="39" y="105" width="11" height="11" rx="2.5" fill="#161b22" style="animation-delay:0.12s"/>
<rect class="c" x="39" y="118" width="11" height="11" rx="2.5" fill="#161b22" style="animation-delay:0.14s"/>
<rect class="c" x="52" y="40" width="11" height="11" rx="2.5" fill="#161b22" style="animation-delay:0.04s"/>
<rect class="c" x="52" y="53" width="11" height="11" rx="2.5" fill="#161b22" style="animation-delay:0.06s"/>
<rect class="c" x="52" y="66" width="11" height="11" rx="2.5" fill="#0e4429" style="animation-delay:0.08s"/>
<rect class="c" x="52" y="79" width="11" height="11" rx="2.5" fill="#161b22" style="animation-delay:0.10s"/>
<rect class="c" x="52" y="92" width="11" height="11" rx="2.5" fill="#161b22" style="animation-delay:0.12s"/>
<rect class="c" x="52" y="105" width="11" height="11" rx="2.5" fill="#161b22" style="animation-delay:0.14s"/>
<rect class="c" x="52" y="118" width="11" height="11" rx="2.5" fill="#161b22" style="animation-delay:0.16s"/>
<rect class="c" x="65" y="40" width="11" height="11" rx="2.5" fill="#161b22" style="animation-delay:0.06s"/>
<rect class="c" x="65" y="53" width="11" height="11" rx="2.5" fill="#161b22" style="animation-delay:0.08s"/>
<rect class="c" x="65" y="66" width="11" height="11" rx="2.5" fill="#161b22" style="animation-delay:0.10s"/>
<rect class="c" x="65" y="79" width="11" height="11" rx="2.5" fill="#161b22" style="animation-delay:0.12s"/>
<rect class="c" x="65" y="92" width="11" height="11" rx="2.5" fill="#161b22" style="animation-delay:0.14s"/>
<rect class="c" x="65" y="105" width="11" height="11" rx="2.5" fill="#161b22" style="animation-delay:0.16s"/>
<rect class="c" x="65" y="118" width="11" height="11" rx="2.5" fill="#161b22" style="animation-delay:0.18s"/>
<rect class="c" x="78" y="40" width="11" height="11" rx="2.5" fill="#161b22" style="animation-delay:0.08s"/>
<rect class="c" x="78" y="53" width="11" height="11" rx="2.5" fill="#161b22" style="animation-delay:0.10s"/>
<rect class="c" x="78" y="66" width="11" height="11" rx="2.5" fill="#161b22" style="animation-delay:0.12s"/>
<rect class="c" x="78" y="79" width="11" height="11" rx="2.5" fill="#161b22" style="animation-delay:0.14s"/>
<rect class="c" x="78" y="92" width="11" height="11" rx="2.5" fill="#161b22" style="animation-delay:0.16s"/>
<rect class="c" x="78" y="105" width="11" height="11" rx="2.5" fill="#161b22" style="animation-delay:0.18s"/>
<rect class="c" x="78" y="118" width="11" height="11" rx="2.5" fill="#161b22" style="animation-delay:0.20s"/>
<rect class="c" x="91" y="40" width="11" height="11" rx="2.5" fill="#161b22" style="animation-delay:0.10s"/>
<rect class="c" x="91" y="53" width="11" height="11" rx="2.5" fill="#161b22" style="animation-delay:0.12s"/>
<rect class="c" x="91" y="66" width="11" height="11" rx="2.5" fill="#161b22" style="animation-delay:0.14s"/>
<rect class="c" x="91" y="79" width="11" height="11" rx="2.5" fill="#161b22" style="animation-delay:0.16s"/>
<rect class="c" x="91" y="92" width="11" height="11" rx="2.5" fill="#161b22" style="animation-delay:0.18s"/>
<rect class="c" x="91" y="105" width="11" height="11" rx="2.5" fill="#161b22" style="animation-delay:0.20s"/>
<rect class="c" x="91" y="118" width="11" height="11" rx="2.5" fill="#161b22" style="animation-delay:0.22s"/>
<rect class="c" x="104" y="40" width="11" height="11" rx="2.5" fill="#161b22" style="animation-delay:0.12s"/>
<rect class="c" x="104" y="53" width="11" height="11" rx="2.5" fill="#161b22" style="animation-delay:0.14s"/>
<rect class="c" x="104" y="66" width="11" height="11" rx="2.5" fill="#161b22" style="animation-delay:0.16s"/>
<rect class="c" x="104" y="79" width="11" height="11" rx="2.5" fill="#161b22" style="animation-delay:0.18s"/>
<rect class="c" x="104" y="92" width="11" height="11" rx="2.5" fill="#161b22" style="animation-delay:0.20s"/>
<rect class="c" x="104" y="105" width="11" height="11" rx="2.5" fill="#161b22" style="animation-delay:0.22s"/>
<rect class="c" x="104" y="118" width="11" height="11" rx="2.5" fill="#161b22" style="animation-delay:0.24s"/>
<rect class="c" x="117" y="40" width="11" height="11" rx="2.5" fill="#161b22" style="animation-delay:0.14s"/>
<rect class="c" x="117" y="53" width="11" height="11" rx="2.5" fill="#161b22" style="animation-delay:0.16s"/>
<rect class="c" x="117" y="66" width="11" height="11" rx="2.5" fill="#161b22" style="animation-delay:0.18s"/>
<rect class="c" x="117" y="79" width="11" height="11" rx="2.5" fill="#161b22" style="animation-delay:0.20s"/>
<rect class="c" x="117" y="92" width="11" height="11" rx="2.5" fill="#161b22" style="animation-delay:0.22s"/>
<rect class="c" x="117" y="105" width="11" height="11" rx="2.5" fill="#161b22" style="animation-delay:0.24s"/>
<rect class="c" x="117" y="118" width="11" height="11" rx="2.5" fill="#161b22" style="animation-delay:0.26s"/>
<rect class="c" x="130" y="40" width="11" height="11" rx="2.5" fill="#161b22" style="animation-delay:0.16s"/>
<rect class="c" x="130" y="53" width="11" height="11" rx="2.5" fill="#161b22" style="animation-delay:0.18s"/>
<rect class="c" x="130" y="66" width="11" height="11" rx="2.5" fill="#161b22" style="animation-delay:0.20s"/>
<rect class="c" x="130" y="79" width="11" height="11" rx="2.5" fill="#161b22" style="animation-delay:0.22s"/>
<rect class="c" x="130" y="92" width="11" height="11" rx="2.5" fill="#161b22" style="animation-delay:0.24s"/>
<rect class="c" x="130" y="105" width="11" height="11" rx="2.5" fill="#161b22" style="animation-delay:0.26s"/>
<rect class="c" x="130" y="118" width="11" height="11" rx="2.5" fill="#161b22" style="animation-delay:0.28s"/>
<rect class="c" x="143" y="40" width="11" height="11" rx="2.5" fill="#161b22" style="animation-delay:0.18s"/>
<rect class="c" x="143" y="53" width="11" height="11" rx="2.5" fill="#161b22" style="animation-delay:0.20s"/>
<rect class="c" x="143" y="66" width="11" height="11" rx="2.5" fill="#161b22" style="animation-delay:0.22s"/>
<rect class="c" x="143" y="79" width="11" height="11" rx="2.5" fill="#161b22" style="animation-delay:0.24s"/>
<rect class="c" x="143" y="92" width="11" height="11" rx="2.5" fill="#161b22" style="animation-delay:0.26s"/>
<rect class="c" x="143" y="105" width="11" height="11" rx="2.5" fill="#161b22" style="animation-delay:0.28s"/>
<rect class="c" x="143" y="118" width="11" height="11" rx="2.5" fill="#161b22" style="animation-delay:0.30s"/>
<rect class="c" x="156" y="40" width="11" height="11" rx="2.5" fill="#161b22" style="animation-delay:0.20s"/>
<rect class="c" x="156" y="53" width="11" height="11" rx="2.5" fill="#161b22" style="animation-delay:0.22s"/>
<rect class="c" x="156" y="66" width="11" height="11" rx="2.5" fill="#161b22" style="animation-delay:0.24s"/>
<rect class="c" x="156" y="79" width="11" height="11" rx="2.5" fill="#161b22" style="animation-delay:0.26s"/>
<rect class="c" x="156" y="92" width="11" height="11" rx="2.5" fill="#161b22" style="animation-delay:0.28s"/>
<rect class="c" x="156" y="105" width="11" height="11" rx="2.5" fill="#161b22" style="animation-delay:0.30s"/>
<rect class="c" x="156" y="118" width="11" height="11" rx="2.5" fill="#161b22" style="animation-delay:0.32s"/>
<rect class="c" x="169" y="40" width="11" height="11" rx="2.5" fill="#161b22" style="animation-delay:0.22s"/>
<rect class="c" x="169" y="53" width="11" height="11" rx="2.5" fill="#161b22" style="animation-delay:0.24s"/>
<rect class="c" x="169" y="66" width="11" height="11" rx="2.5" fill="#161b22" style="animation-delay:0.26s"/>
<rect class="c" x="169" y="79" width="11" height="11" rx="2.5" fill="#161b22" style="animation-delay:0.28s"/>
<rect class="c" x="169" y="92" width="11" height="11" rx="2.5" fill="#161b22" style="animation-delay:0.30s"/>
<rect class="c" x="169" y="105" width="11" height="11" rx="2.5" fill="#161b22" style="animation-delay:0.32s"/>
<rect class="c" x="169" y="118" width="11" height="11" rx="2.5" fill="#161b22" style="animation-delay:0.34s"/>
<rect class="c" x="182" y="40" width="11" height="11" rx="2.5" fill="#161b22" style="animation-delay:0.24s"/>
<rect class="c" x="182" y="53" width="11" height="11" rx="2.5" fill="#161b22" style="animation-delay:0.26s"/>
<rect class="c" x="182" y="66" width="11" height="11" rx="2.5" fill="#161b22" style="animation-delay:0.28s"/>
<rect class="c" x="182" y="79" width="11" height="11" rx="2.5" fill="#161b22" style="animation-delay:0.30s"/>
<rect class="c" x="182" y="92" width="11" height="11" rx="2.5" fill="#161b22" style="animation-delay:0.32s"/>
<rect class="c" x="182" y="105" width="11" height="11" rx="2.5" fill="#161b22" style="animation-delay:0.34s"/>
<rect class="c" x="182" y="118" width="11" height="11" rx="2.5" fill="#161b22" style="animation-delay:0.36s"/>
<rect class="c" x="195" y="40" width="11" height="11" rx="2.5" fill="#161b22" style="animation-delay:0.26s"/>
<rect class="c" x="195" y="53" width="11" height="11" rx="2.5" fill="#161b22" style="animation-delay:0.28s"/>
<rect class="c" x="195" y="66" width="11" height="11" rx="2.5" fill="#161b22" style="animation-delay:0.30s"/>
<rect class="c" x="195" y="79" width="11" height="11" rx="2.5" fill="#161b22" style="animation-delay:0.32s"/>
<rect class="c" x="195" y="92" width="11" height="11" rx="2.5" fill="#161b22" style="animation-delay:0.34s"/>
<rect class="c" x="195" y="105" width="11" height="11" rx="2.5" fill="#161b22" style="animation-delay:0.36s"/>
<rect class="c" x="195" y="118" width="11" height="11" rx="2.5" fill="#161b22" style="animation-delay:0.38s"/>
<rect class="c" x="208" y="40" width="11" height="11" rx="2.5" fill="#161b22" style="animation-delay:0.28s"/>
<rect class="c" x="208" y="53" width="11" height="11" rx="2.5" fill="#161b22" style="animation-delay:0.30s"/>
<rect class="c" x="208" y="66" width="11" height="11" rx="2.5" fill="#161b22" style="animation-delay:0.32s"/>
<rect class="c" x="208" y="79" width="11" height="11" rx="2.5" fill="#161b22" style="animation-delay:0.34s"/>
<rect class="c" x="208" y="92" width="11" height="11" rx="2.5" fill="#161b22" style="animation-delay:0.36s"/>
<rect class="c" x="208" y="105" width="11" height="11" rx="2.5" fill="#161b22" style="animation-delay:0.38s"/>
<rect class="c" x="208" y="118" width="11" height="11" rx="2.5" fill="#161b22" style="animation-delay:0.40s"/>
<rect class="c" x="221" y="40" width="11" height="11" rx="2.5" fill="#161b22" style="animation-delay:0.30s"/>
<rect class="c" x="221" y="53" width="11" height="11" rx="2.5" fill="#161b22" style="animation-delay:0.32s"/>
<rect class="c" x="221" y="66" width="11" height="11" rx="2.5" fill="#161b22" style="animation-delay:0.34s"/>
<rect class="c" x="221" y="79" width="11" height="11" rx="2.5" fill="#161b22" style="animation-delay:0.36s"/>
<rect class="c" x="221" y="92" width="11" height="11" rx="2.5" fill="#161b22" style="animation-delay:0.38s"/>
<rect class="c" x="221" y="105" width="11" height="11" rx="2.5" fill="#161b22" style="animation-delay:0.40s"/>
<rect class="c" x="221" y="118" width="11" height="11" rx="2.5" fill="#161b22" style="animation-delay:0.42s"/>
<rect class="c" x="234" y="40" width="11" height="11" rx="2.5" fill="#161b22" style="animation-delay:0.32s"/>
<rect class="c" x="234" y="53" width="11" height="11" rx="2.5" fill="#161b22" style="animation-delay:0.34s"/>
<rect class="c" x="234" y="66" width="11" height="11" rx="2.5" fill="#161b22" style="animation-delay:0.36s"/>
<rect class="c" x="234" y="79" width="11" height="11" rx="2.5" fill="#161b22" style="animation-delay:0.38s"/>
<rect class="c" x="234" y="92" width="11" height="11" rx="2.5" fill="#161b22" style="animation-delay:0.40s"/>
<rect class="c" x="234" y="105" width="11" height="11" rx="2.5" fill="#161b22" style="animation-delay:0.42s"/>
<rect class="c" x="234" y="118" width="11" height="11" rx="2.5" fill="#161b22" style="animation-delay:0.44s"/>
<rect class="c" x="247" y="40" width="11" height="11" rx="2.5" fill="#161b22" style="animation-delay:0.34s"/>
<rect class="c" x="247" y="53" width="11" height="11" rx="2.5" fill="#161b22" style="animation-delay:0.36s"/>
<rect class="c" x="247" y="66" width="11" height="11" rx="2.5" fill="#161b22" style="animation-delay:0.38s"/>
<rect class="c" x="247" y="79" width="11" height="11" rx="2.5" fill="#161b22" style="animation-delay:0.40s"/>
<rect class="c" x="247" y="92" width="11" height="11" rx="2.5" fill="#161b22" style="animation-delay:0.42s"/>
<rect class="c" x="247" y="105" width="11" height="11" rx="2.5" fill="#161b22" style="animation-delay:0.44s"/>
<rect class="c" x="247" y="118" width="11" height="11" rx="2.5" fill="#161b22" style="animation-delay:0.46s"/>
<rect class="c" x="260" y="40" width="11" height="11" rx="2.5" fill="#161b22" style="animation-delay:0.36s"/>
<rect class="c" x="260" y="53" width="11" height="11" rx="2.5" fill="#161b22" style="animation-delay:0.38s"/>
<rect class="c" x="260" y="66" width="11" height="11" rx="2.5" fill="#161b22" style="animation-delay:0.40s"/>
<rect class="c" x="260" y="79" width="11" height="11" rx="2.5" fill="#161b22" style="animation-delay:0.42s"/>
<rect class="c" x="260" y="92" width="11" height="11" rx="2.5" fill="#161b22" style="animation-delay:0.44s"/>
<rect class="c" x="260" y="105" width="11" height="11" rx="2.5" fill="#161b22" style="animation-delay:0.46s"/>
<rect class="c" x="260" y="118" width="11" height="11" rx="2.5" fill="#161b22" style="animation-delay:0.48s"/>
<rect class="c" x="273" y="40" width="11" height="11" rx="2.5" fill="#161b22" style="animation-delay:0.38s"/>
<rect class="c" x="273" y="53" width="11" height="11" rx="2.5" fill="#161b22" style="animation-delay:0.40s"/>
<rect class="c" x="273" y="66" width="11" height="11" rx="2.5" fill="#161b22" style="animation-delay:0.42s"/>
<rect class="c" x="273" y="79" width="11" height="11" rx="2.5" fill="#161b22" style="animation-delay:0.44s"/>
<rect class="c" x="273" y="92" width="11" height="11" rx="2.5" fill="#161b22" style="animation-delay:0.46s"/>
<rect class="c" x="273" y="105" width="11" height="11" rx="2.5" fill="#161b22" style="animation-delay:0.48s"/>
<rect class="c" x="273" y="118" width="11" height="11" rx="2.5" fill="#161b22" style="animation-delay:0.50s"/>
<rect class="c" x="286" y="40" width="11" height="11" rx="2.5" fill="#161b22" style="animation-delay:0.40s"/>
<rect class="c" x="286" y="53" width="11" height="11" rx="2.5" fill="#161b22" style="animation-delay:0.42s"/>
<rect class="c" x="286" y="66" width="11" height="11" rx="2.5" fill="#161b22" style="animation-delay:0.44s"/>
<rect class="c" x="286" y="79" width="11" height="11" rx="2.5" fill="#161b22" style="animation-delay:0.46s"/>
<rect class="c" x="286" y="92" width="11" height="11" rx="2.5" fill="#161b22" style="animation-delay:0.48s"/>
<rect class="c" x="286" y="105" width="11" height="11" rx="2.5" fill="#161b22" style="animation-delay:0.50s"/>
<rect class="c" x="286" y="118" width="11" height="11" rx="2.5" fill="#161b22" style="animation-delay:0.52s"/>
<rect class="c" x="299" y="40" width="11" height="11" rx="2.5" fill="#161b22" style="animation-delay:0.42s"/>
<rect class="c" x="299" y="53" width="11" height="11" rx="2.5" fill="#161b22" style="animation-delay:0.44s"/>
<rect class="c" x="299" y="66" width="11" height="11" rx="2.5" fill="#161b22" style="animation-delay:0.46s"/>
<rect class="c" x="299" y="79" width="11" height="11" rx="2.5" fill="#161b22" style="animation-delay:0.48s"/>
<rect class="c" x="299" y="92" width="11" height="11" rx="2.5" fill="#161b22" style="animation-delay:0.50s"/>
<rect class="c" x="299" y="105" width="11" height="11" rx="2.5" fill="#161b22" style="animation-delay:0.52s"/>
<rect class="c" x="299" y="118" width="11" height="11" rx="2.5" fill="#161b22" style="animation-delay:0.54s"/>
<rect class="c" x="312" y="40" width="11" height="11" rx="2.5" fill="#161b22" style="animation-delay:0.44s"/>
<rect class="c" x="312" y="53" width="11" height="11" rx="2.5" fill="#161b22" style="animation-delay:0.46s"/>
<rect class="c" x="312" y="66" width="11" height="11" rx="2.5" fill="#161b22" style="animation-delay:0.48s"/>
<rect class="c" x="312" y="79" width="11" height="11" rx="2.5" fill="#161b22" style="animation-delay:0.50s"/>
<rect class="c" x="312" y="92" width="11" height="11" rx="2.5" fill="#161b22" style="animation-delay:0.52s"/>
<rect class="c" x="312" y="105" width="11" height="11" rx="2.5" fill="#161b22" style="animation-delay:0.54s"/>
<rect class="c" x="312" y="118" width="11" height="11" rx="2.5" fill="#161b22" style="animation-delay:0.56s"/>
<rect class="c" x="325" y="40" width="11" height="11" rx="2.5" fill="#161b22" style="animation-delay:0.46s"/>
<rect class="c" x="325" y="53" width="11" height="11" rx="2.5" fill="#161b22" style="animation-delay:0.48s"/>
<rect class="c" x="325" y="66" width="11" height="11" rx="2.5" fill="#161b22" style="animation-delay:0.50s"/>
<rect class="c" x="325" y="79" width="11" height="11" rx="2.5" fill="#161b22" style="animation-delay:0.52s"/>
<rect class="c" x="325" y="92" width="11" height="11" rx="2.5" fill="#161b22" style="animation-delay:0.54s"/>
<rect class="c" x="325" y="105" width="11" height="11" rx="2.5" fill="#161b22" style="animation-delay:0.56s"/>
<rect class="c" x="325" y="118" width="11" height="11" rx="2.5" fill="#161b22" style="animation-delay:0.58s"/>
<rect class="c" x="338" y="40" width="11" height="11" rx="2.5" fill="#161b22" style="animation-delay:0.48s"/>
<rect class="c" x="338" y="53" width="11" height="11" rx="2.5" fill="#161b22" style="animation-delay:0.50s"/>
<rect class="c" x="338" y="66" width="11" height="11" rx="2.5" fill="#161b22" style="animation-delay:0.52s"/>
<rect class="c" x="338" y="79" width="11" height="11" rx="2.5" fill="#0e4429" style="animation-delay:0.54s"/>
<rect class="c" x="338" y="92" width="11" height="11" rx="2.5" fill="#0e4429" style="animation-delay:0.56s"/>
<rect class="c" x="338" y="105" width="11" height="11" rx="2.5" fill="#161b22" style="animation-delay:0.58s"/>
<rect class="c" x="338" y="118" width="11" height="11" rx="2.5" fill="#161b22" style="animation-delay:0.60s"/>
<rect class="c" x="351" y="40" width="11" height="11" rx="2.5" fill="#161b22" style="animation-delay:0.50s"/>
<rect class="c" x="351" y="53" width="11" height="11" rx="2.5" fill="#161b22" style="animation-delay:0.52s"/>
<rect class="c" x="351" y="66" width="11" height="11" rx="2.5" fill="#161b22" style="animation-delay:0.54s"/>
<rect class="c" x="351" y="79" width="11" height="11" rx="2.5" fill="#0e4429" style="animation-delay:0.56s"/>
<rect class="c" x="351" y="92" width="11" height="11" rx="2.5" fill="#161b22" style="animation-delay:0.58s"/>
<rect class="c" x="351" y="105" width="11" height="11" rx="2.5" fill="#0e4429" style="animation-delay:0.60s"/>
<rect class="c" x="351" y="118" width="11" height="11" rx="2.5" fill="#161b22" style="animation-delay:0.62s"/>
<rect class="c" x="364" y="40" width="11" height="11" rx="2.5" fill="#0e4429" style="animation-delay:0.52s"/>
<rect class="c" x="364" y="53" width="11" height="11" rx="2.5" fill="#006d32" style="animation-delay:0.54s"/>
<rect class="c" x="364" y="66" width="11" height="11" rx="2.5" fill="#0e4429" style="animation-delay:0.56s"/>
<rect class="c" x="364" y="79" width="11" height="11" rx="2.5" fill="#161b22" style="animation-delay:0.58s"/>
<rect class="c" x="364" y="92" width="11" height="11" rx="2.5" fill="#161b22" style="animation-delay:0.60s"/>
<rect class="c" x="364" y="105" width="11" height="11" rx="2.5" fill="#161b22" style="animation-delay:0.62s"/>
<rect class="c" x="364" y="118" width="11" height="11" rx="2.5" fill="#161b22" style="animation-delay:0.64s"/>
<rect class="c" x="377" y="40" width="11" height="11" rx="2.5" fill="#161b22" style="animation-delay:0.54s"/>
<rect class="c" x="377" y="53" width="11" height="11" rx="2.5" fill="#161b22" style="animation-delay:0.56s"/>
<rect class="c" x="377" y="66" width="11" height="11" rx="2.5" fill="#161b22" style="animation-delay:0.58s"/>
<rect class="c" x="377" y="79" width="11" height="11" rx="2.5" fill="#161b22" style="animation-delay:0.60s"/>
<rect class="c" x="377" y="92" width="11" height="11" rx="2.5" fill="#161b22" style="animation-delay:0.62s"/>
<rect class="c" x="377" y="105" width="11" height="11" rx="2.5" fill="#161b22" style="animation-delay:0.64s"/>
<rect class="c" x="377" y="118" width="11" height="11" rx="2.5" fill="#161b22" style="animation-delay:0.66s"/>
<rect class="c" x="390" y="40" width="11" height="11" rx="2.5" fill="#161b22" style="animation-delay:0.56s"/>
<rect class="c" x="390" y="53" width="11" height="11" rx="2.5" fill="#0e4429" style="animation-delay:0.58s"/>
<rect class="c" x="390" y="66" width="11" height="11" rx="2.5" fill="#161b22" style="animation-delay:0.60s"/>
<rect class="c" x="390" y="79" width="11" height="11" rx="2.5" fill="#0e4429" style="animation-delay:0.62s"/>
<rect class="c" x="390" y="92" width="11" height="11" rx="2.5" fill="#006d32" style="animation-delay:0.64s"/>
<rect class="c" x="390" y="105" width="11" height="11" rx="2.5" fill="#0e4429" style="animation-delay:0.66s"/>
<rect class="c" x="390" y="118" width="11" height="11" rx="2.5" fill="#161b22" style="animation-delay:0.68s"/>
<rect class="c" x="403" y="40" width="11" height="11" rx="2.5" fill="#161b22" style="animation-delay:0.58s"/>
<rect class="c" x="403" y="53" width="11" height="11" rx="2.5" fill="#0e4429" style="animation-delay:0.60s"/>
<rect class="c" x="403" y="66" width="11" height="11" rx="2.5" fill="#0e4429" style="animation-delay:0.62s"/>
<rect class="c" x="403" y="79" width="11" height="11" rx="2.5" fill="#0e4429" style="animation-delay:0.64s"/>
<rect class="c" x="403" y="92" width="11" height="11" rx="2.5" fill="#0e4429" style="animation-delay:0.66s"/>
<rect class="c" x="403" y="105" width="11" height="11" rx="2.5" fill="#161b22" style="animation-delay:0.68s"/>
<rect class="c" x="403" y="118" width="11" height="11" rx="2.5" fill="#0e4429" style="animation-delay:0.70s"/>
<rect class="c" x="416" y="40" width="11" height="11" rx="2.5" fill="#161b22" style="animation-delay:0.60s"/>
<rect class="c" x="416" y="53" width="11" height="11" rx="2.5" fill="#161b22" style="animation-delay:0.62s"/>
<rect class="c" x="416" y="66" width="11" height="11" rx="2.5" fill="#161b22" style="animation-delay:0.64s"/>
<rect class="c" x="416" y="79" width="11" height="11" rx="2.5" fill="#161b22" style="animation-delay:0.66s"/>
<rect class="c" x="416" y="92" width="11" height="11" rx="2.5" fill="#161b22" style="animation-delay:0.68s"/>
<rect class="c" x="416" y="105" width="11" height="11" rx="2.5" fill="#161b22" style="animation-delay:0.70s"/>
<rect class="c" x="416" y="118" width="11" height="11" rx="2.5" fill="#0e4429" style="animation-delay:0.72s"/>
<rect class="c" x="429" y="40" width="11" height="11" rx="2.5" fill="#0e4429" style="animation-delay:0.62s"/>
<rect class="c" x="429" y="53" width="11" height="11" rx="2.5" fill="#0e4429" style="animation-delay:0.64s"/>
<rect class="c" x="429" y="66" width="11" height="11" rx="2.5" fill="#0e4429" style="animation-delay:0.66s"/>
<rect class="c" x="429" y="79" width="11" height="11" rx="2.5" fill="#161b22" style="animation-delay:0.68s"/>
<rect class="c" x="429" y="92" width="11" height="11" rx="2.5" fill="#161b22" style="animation-delay:0.70s"/>
<rect class="c" x="429" y="105" width="11" height="11" rx="2.5" fill="#161b22" style="animation-delay:0.72s"/>
<rect class="c" x="429" y="118" width="11" height="11" rx="2.5" fill="#0e4429" style="animation-delay:0.74s"/>
<rect class="c" x="442" y="40" width="11" height="11" rx="2.5" fill="#0e4429" style="animation-delay:0.64s"/>
<rect class="c" x="442" y="53" width="11" height="11" rx="2.5" fill="#161b22" style="animation-delay:0.66s"/>
<rect class="c" x="442" y="66" width="11" height="11" rx="2.5" fill="#161b22" style="animation-delay:0.68s"/>
<rect class="c" x="442" y="79" width="11" height="11" rx="2.5" fill="#161b22" style="animation-delay:0.70s"/>
<rect class="c" x="442" y="92" width="11" height="11" rx="2.5" fill="#161b22" style="animation-delay:0.72s"/>
<rect class="c" x="442" y="105" width="11" height="11" rx="2.5" fill="#0e4429" style="animation-delay:0.74s"/>
<rect class="c" x="442" y="118" width="11" height="11" rx="2.5" fill="#161b22" style="animation-delay:0.76s"/>
<rect class="c" x="455" y="40" width="11" height="11" rx="2.5" fill="#0e4429" style="animation-delay:0.66s"/>
<rect class="c" x="455" y="53" width="11" height="11" rx="2.5" fill="#161b22" style="animation-delay:0.68s"/>
<rect class="c" x="455" y="66" width="11" height="11" rx="2.5" fill="#0e4429" style="animation-delay:0.70s"/>
<rect class="c" x="455" y="79" width="11" height="11" rx="2.5" fill="#0e4429" style="animation-delay:0.72s"/>
<rect class="c" x="455" y="92" width="11" height="11" rx="2.5" fill="#0e4429" style="animation-delay:0.74s"/>
<rect class="c" x="455" y="105" width="11" height="11" rx="2.5" fill="#0e4429" style="animation-delay:0.76s"/>
<rect class="c" x="455" y="118" width="11" height="11" rx="2.5" fill="#161b22" style="animation-delay:0.78s"/>
<rect class="c" x="468" y="40" width="11" height="11" rx="2.5" fill="#161b22" style="animation-delay:0.68s"/>
<rect class="c" x="468" y="53" width="11" height="11" rx="2.5" fill="#161b22" style="animation-delay:0.70s"/>
<rect class="c" x="468" y="66" width="11" height="11" rx="2.5" fill="#161b22" style="animation-delay:0.72s"/>
<rect class="c" x="468" y="79" width="11" height="11" rx="2.5" fill="#161b22" style="animation-delay:0.74s"/>
<rect class="c" x="468" y="92" width="11" height="11" rx="2.5" fill="#006d32" style="animation-delay:0.76s"/>
<rect class="c" x="468" y="105" width="11" height="11" rx="2.5" fill="#161b22" style="animation-delay:0.78s"/>
<rect class="c" x="468" y="118" width="11" height="11" rx="2.5" fill="#161b22" style="animation-delay:0.80s"/>
<rect class="c" x="481" y="40" width="11" height="11" rx="2.5" fill="#0e4429" style="animation-delay:0.70s"/>
<rect class="c" x="481" y="53" width="11" height="11" rx="2.5" fill="#0e4429" style="animation-delay:0.72s"/>
<rect class="c" x="481" y="66" width="11" height="11" rx="2.5" fill="#0e4429" style="animation-delay:0.74s"/>
<rect class="c" x="481" y="79" width="11" height="11" rx="2.5" fill="#0e4429" style="animation-delay:0.76s"/>
<rect class="c" x="481" y="92" width="11" height="11" rx="2.5" fill="#0e4429" style="animation-delay:0.78s"/>
<rect class="c" x="481" y="105" width="11" height="11" rx="2.5" fill="#0e4429" style="animation-delay:0.80s"/>
<rect class="c" x="481" y="118" width="11" height="11" rx="2.5" fill="#161b22" style="animation-delay:0.82s"/>
<rect class="c" x="494" y="40" width="11" height="11" rx="2.5" fill="#006d32" style="animation-delay:0.72s"/>
<rect class="c" x="494" y="53" width="11" height="11" rx="2.5" fill="#0e4429" style="animation-delay:0.74s"/>
<rect class="c" x="494" y="66" width="11" height="11" rx="2.5" fill="#0e4429" style="animation-delay:0.76s"/>
<rect class="c" x="494" y="79" width="11" height="11" rx="2.5" fill="#0e4429" style="animation-delay:0.78s"/>
<rect class="c" x="494" y="92" width="11" height="11" rx="2.5" fill="#006d32" style="animation-delay:0.80s"/>
<rect class="c" x="494" y="105" width="11" height="11" rx="2.5" fill="#161b22" style="animation-delay:0.82s"/>
<rect class="c" x="494" y="118" width="11" height="11" rx="2.5" fill="#161b22" style="animation-delay:0.84s"/>
<rect class="c" x="507" y="40" width="11" height="11" rx="2.5" fill="#161b22" style="animation-delay:0.74s"/>
<rect class="c" x="507" y="53" width="11" height="11" rx="2.5" fill="#0e4429" style="animation-delay:0.76s"/>
<rect class="c" x="507" y="66" width="11" height="11" rx="2.5" fill="#0e4429" style="animation-delay:0.78s"/>
<rect class="c" x="507" y="79" width="11" height="11" rx="2.5" fill="#0e4429" style="animation-delay:0.80s"/>
<rect class="c" x="507" y="92" width="11" height="11" rx="2.5" fill="#161b22" style="animation-delay:0.82s"/>
<rect class="c" x="507" y="105" width="11" height="11" rx="2.5" fill="#0e4429" style="animation-delay:0.84s"/>
<rect class="c" x="507" y="118" width="11" height="11" rx="2.5" fill="#0e4429" style="animation-delay:0.86s"/>
<rect class="c" x="520" y="40" width="11" height="11" rx="2.5" fill="#161b22" style="animation-delay:0.76s"/>
<rect class="c" x="520" y="53" width="11" height="11" rx="2.5" fill="#0e4429" style="animation-delay:0.78s"/>
<rect class="c" x="520" y="66" width="11" height="11" rx="2.5" fill="#0e4429" style="animation-delay:0.80s"/>
<rect class="c" x="520" y="79" width="11" height="11" rx="2.5" fill="#0e4429" style="animation-delay:0.82s"/>
<rect class="c" x="520" y="92" width="11" height="11" rx="2.5" fill="#26a641" style="animation-delay:0.84s"/>
<rect class="c" x="520" y="105" width="11" height="11" rx="2.5" fill="#0e4429" style="animation-delay:0.86s"/>
<rect class="c" x="520" y="118" width="11" height="11" rx="2.5" fill="#0e4429" style="animation-delay:0.88s"/>
<rect class="c" x="533" y="40" width="11" height="11" rx="2.5" fill="#006d32" style="animation-delay:0.78s"/>
<rect class="c" x="533" y="53" width="11" height="11" rx="2.5" fill="#006d32" style="animation-delay:0.80s"/>
<rect class="c" x="533" y="66" width="11" height="11" rx="2.5" fill="#0e4429" style="animation-delay:0.82s"/>
<rect class="c" x="533" y="79" width="11" height="11" rx="2.5" fill="#006d32" style="animation-delay:0.84s"/>
<rect class="c" x="533" y="92" width="11" height="11" rx="2.5" fill="#26a641" style="animation-delay:0.86s"/>
<rect class="c" x="533" y="105" width="11" height="11" rx="2.5" fill="#0e4429" style="animation-delay:0.88s"/>
<rect class="c" x="533" y="118" width="11" height="11" rx="2.5" fill="#0e4429" style="animation-delay:0.90s"/>
<rect class="c" x="546" y="40" width="11" height="11" rx="2.5" fill="#161b22" style="animation-delay:0.80s"/>
<rect class="c" x="546" y="53" width="11" height="11" rx="2.5" fill="#0e4429" style="animation-delay:0.82s"/>
<rect class="c" x="546" y="66" width="11" height="11" rx="2.5" fill="#006d32" style="animation-delay:0.84s"/>
<rect class="c" x="546" y="79" width="11" height="11" rx="2.5" fill="#0e4429" style="animation-delay:0.86s"/>
<rect class="c" x="546" y="92" width="11" height="11" rx="2.5" fill="#0e4429" style="animation-delay:0.88s"/>
<rect class="c" x="546" y="105" width="11" height="11" rx="2.5" fill="#006d32" style="animation-delay:0.90s"/>
<rect class="c" x="546" y="118" width="11" height="11" rx="2.5" fill="#006d32" style="animation-delay:0.92s"/>
<rect class="c" x="559" y="40" width="11" height="11" rx="2.5" fill="#39d353" style="animation-delay:0.82s"/>
<rect class="c" x="559" y="53" width="11" height="11" rx="2.5" fill="#006d32" style="animation-delay:0.84s"/>
<rect class="c" x="559" y="66" width="11" height="11" rx="2.5" fill="#0e4429" style="animation-delay:0.86s"/>
<rect class="c" x="559" y="79" width="11" height="11" rx="2.5" fill="#161b22" style="animation-delay:0.88s"/>
<rect class="c" x="559" y="92" width="11" height="11" rx="2.5" fill="#0e4429" style="animation-delay:0.90s"/>
<rect class="c" x="559" y="105" width="11" height="11" rx="2.5" fill="#161b22" style="animation-delay:0.92s"/>
<rect class="c" x="559" y="118" width="11" height="11" rx="2.5" fill="#161b22" style="animation-delay:0.94s"/>
<rect class="c" x="572" y="40" width="11" height="11" rx="2.5" fill="#0e4429" style="animation-delay:0.84s"/>
<rect class="c" x="572" y="53" width="11" height="11" rx="2.5" fill="#26a641" style="animation-delay:0.86s"/>
<rect class="c" x="572" y="66" width="11" height="11" rx="2.5" fill="#006d32" style="animation-delay:0.88s"/>
<rect class="c" x="572" y="79" width="11" height="11" rx="2.5" fill="#006d32" style="animation-delay:0.90s"/>
<rect class="c" x="572" y="92" width="11" height="11" rx="2.5" fill="#0e4429" style="animation-delay:0.92s"/>
<rect class="c" x="572" y="105" width="11" height="11" rx="2.5" fill="#0e4429" style="animation-delay:0.94s"/>
<rect class="c" x="572" y="118" width="11" height="11" rx="2.5" fill="#161b22" style="animation-delay:0.96s"/>
<rect class="c" x="585" y="40" width="11" height="11" rx="2.5" fill="#0e4429" style="animation-delay:0.86s"/>
<rect class="c" x="585" y="53" width="11" height="11" rx="2.5" fill="#0e4429" style="animation-delay:0.88s"/>
<rect class="c" x="585" y="66" width="11" height="11" rx="2.5" fill="#0e4429" style="animation-delay:0.90s"/>
<rect class="c" x="585" y="79" width="11" height="11" rx="2.5" fill="#0e4429" style="animation-delay:0.92s"/>
<rect class="c" x="585" y="92" width="11" height="11" rx="2.5" fill="#161b22" style="animation-delay:0.94s"/>
<rect class="c" x="585" y="105" width="11" height="11" rx="2.5" fill="#0e4429" style="animation-delay:0.96s"/>
<rect class="c" x="585" y="118" width="11" height="11" rx="2.5" fill="#161b22" style="animation-delay:0.98s"/>
<rect class="c" x="598" y="40" width="11" height="11" rx="2.5" fill="#161b22" style="animation-delay:0.88s"/>
<rect class="c" x="598" y="53" width="11" height="11" rx="2.5" fill="#006d32" style="animation-delay:0.90s"/>
<rect class="c" x="598" y="66" width="11" height="11" rx="2.5" fill="#0e4429" style="animation-delay:0.92s"/>
<rect class="c" x="598" y="79" width="11" height="11" rx="2.5" fill="#0e4429" style="animation-delay:0.94s"/>
<rect class="c" x="598" y="92" width="11" height="11" rx="2.5" fill="#0e4429" style="animation-delay:0.96s"/>
<rect class="c" x="598" y="105" width="11" height="11" rx="2.5" fill="#0e4429" style="animation-delay:0.98s"/>
<rect class="c" x="598" y="118" width="11" height="11" rx="2.5" fill="#0e4429" style="animation-delay:1.00s"/>
<rect class="c" x="611" y="40" width="11" height="11" rx="2.5" fill="#0e4429" style="animation-delay:0.90s"/>
<rect class="c" x="611" y="53" width="11" height="11" rx="2.5" fill="#0e4429" style="animation-delay:0.92s"/>
<rect class="c" x="611" y="66" width="11" height="11" rx="2.5" fill="#39d353" style="animation-delay:0.94s"/>
<rect class="c" x="611" y="79" width="11" height="11" rx="2.5" fill="#69f0a0" style="animation-delay:0.96s"/>
<rect class="c" x="611" y="92" width="11" height="11" rx="2.5" fill="#161b22" style="animation-delay:0.98s"/>
<rect class="c" x="611" y="105" width="11" height="11" rx="2.5" fill="#0e4429" style="animation-delay:1.00s"/>
<rect class="c" x="611" y="118" width="11" height="11" rx="2.5" fill="#161b22" style="animation-delay:1.02s"/>
<rect class="c" x="624" y="40" width="11" height="11" rx="2.5" fill="#006d32" style="animation-delay:0.92s"/>
<rect class="c" x="624" y="53" width="11" height="11" rx="2.5" fill="#26a641" style="animation-delay:0.94s"/>
<rect class="c" x="624" y="66" width="11" height="11" rx="2.5" fill="#26a641" style="animation-delay:0.96s"/>
<rect class="c" x="624" y="79" width="11" height="11" rx="2.5" fill="#006d32" style="animation-delay:0.98s"/>
<rect class="c" x="624" y="92" width="11" height="11" rx="2.5" fill="#39d353" style="animation-delay:1.00s"/>
<rect class="c" x="624" y="105" width="11" height="11" rx="2.5" fill="#0e4429" style="animation-delay:1.02s"/>
<rect class="c" x="624" y="118" width="11" height="11" rx="2.5" fill="#161b22" style="animation-delay:1.04s"/>
<rect class="c" x="637" y="40" width="11" height="11" rx="2.5" fill="#0e4429" style="animation-delay:0.94s"/>
<rect class="c" x="637" y="53" width="11" height="11" rx="2.5" fill="#0e4429" style="animation-delay:0.96s"/>
<rect class="c" x="637" y="66" width="11" height="11" rx="2.5" fill="#006d32" style="animation-delay:0.98s"/>
<rect class="c" x="637" y="79" width="11" height="11" rx="2.5" fill="#0e4429" style="animation-delay:1.00s"/>
<rect class="c" x="637" y="92" width="11" height="11" rx="2.5" fill="#0e4429" style="animation-delay:1.02s"/>
<rect class="c" x="637" y="105" width="11" height="11" rx="2.5" fill="#0e4429" style="animation-delay:1.04s"/>
<rect class="c" x="637" y="118" width="11" height="11" rx="2.5" fill="#0e4429" style="animation-delay:1.06s"/>
<rect class="c" x="650" y="40" width="11" height="11" rx="2.5" fill="#0e4429" style="animation-delay:0.96s"/>
<rect class="c" x="650" y="53" width="11" height="11" rx="2.5" fill="#0e4429" style="animation-delay:0.98s"/>
<rect class="c" x="650" y="66" width="11" height="11" rx="2.5" fill="#0e4429" style="animation-delay:1.00s"/>
<rect class="c" x="650" y="79" width="11" height="11" rx="2.5" fill="#0e4429" style="animation-delay:1.02s"/>
<rect class="c" x="650" y="92" width="11" height="11" rx="2.5" fill="#0e4429" style="animation-delay:1.04s"/>
<rect class="c" x="650" y="105" width="11" height="11" rx="2.5" fill="#006d32" style="animation-delay:1.06s"/>
<rect class="c" x="650" y="118" width="11" height="11" rx="2.5" fill="#26a641" style="animation-delay:1.08s"/>
<rect class="c" x="663" y="40" width="11" height="11" rx="2.5" fill="#006d32" style="animation-delay:0.98s"/>
<rect class="c" x="663" y="53" width="11" height="11" rx="2.5" fill="#0e4429" style="animation-delay:1.00s"/>
<rect class="c" x="663" y="66" width="11" height="11" rx="2.5" fill="#0e4429" style="animation-delay:1.02s"/>
<rect class="c" x="663" y="79" width="11" height="11" rx="2.5" fill="#26a641" style="animation-delay:1.04s"/>
<rect class="c" x="663" y="92" width="11" height="11" rx="2.5" fill="#26a641" style="animation-delay:1.06s"/>
<rect class="c" x="663" y="105" width="11" height="11" rx="2.5" fill="#26a641" style="animation-delay:1.08s"/>
<rect class="c" x="663" y="118" width="11" height="11" rx="2.5" fill="#0e4429" style="animation-delay:1.10s"/>
<rect class="c" x="676" y="40" width="11" height="11" rx="2.5" fill="#006d32" style="animation-delay:1.00s"/>
<rect class="c" x="676" y="53" width="11" height="11" rx="2.5" fill="#0e4429" style="animation-delay:1.02s"/>
<rect class="c" x="676" y="66" width="11" height="11" rx="2.5" fill="#39d353" style="animation-delay:1.04s"/>
<rect class="c" x="676" y="79" width="11" height="11" rx="2.5" fill="#26a641" style="animation-delay:1.06s"/>
<rect class="c" x="676" y="92" width="11" height="11" rx="2.5" fill="#006d32" style="animation-delay:1.08s"/>
<rect class="c" x="676" y="105" width="11" height="11" rx="2.5" fill="#26a641" style="animation-delay:1.10s"/>
<rect class="c" x="676" y="118" width="11" height="11" rx="2.5" fill="#0e4429" style="animation-delay:1.12s"/>
<rect class="c" x="689" y="40" width="11" height="11" rx="2.5" fill="#0e4429" style="animation-delay:1.02s"/>
<rect class="c" x="689" y="53" width="11" height="11" rx="2.5" fill="#006d32" style="animation-delay:1.04s"/>
<rect class="c" x="689" y="66" width="11" height="11" rx="2.5" fill="#006d32" style="animation-delay:1.06s"/>
<rect class="c" x="689" y="79" width="11" height="11" rx="2.5" fill="#006d32" style="animation-delay:1.08s"/>
<rect class="c" x="689" y="92" width="11" height="11" rx="2.5" fill="#0e4429" style="animation-delay:1.10s"/>
<rect class="c" x="689" y="105" width="11" height="11" rx="2.5" fill="#0e4429" style="animation-delay:1.12s"/>
<rect class="c" x="689" y="118" width="11" height="11" rx="2.5" fill="#0e4429" style="animation-delay:1.14s"/>
<rect class="c" x="702" y="40" width="11" height="11" rx="2.5" fill="#0e4429" style="animation-delay:1.04s"/>
<text class="f" x="26" y="159" font-size="11" fill="#8b949e">1,752 contributions in the last year  ·  streak 36d  ·  longest 36d</text>
<text class="f" x="713" y="159" font-size="11" fill="#8b949e" text-anchor="end">More</text>
<rect class="f" x="593" y="150" width="11" height="11" rx="2.5" fill="#161b22"/>
<rect class="f" x="606" y="150" width="11" height="11" rx="2.5" fill="#0e4429"/>
<rect class="f" x="619" y="150" width="11" height="11" rx="2.5" fill="#006d32"/>
<rect class="f" x="632" y="150" width="11" height="11" rx="2.5" fill="#26a641"/>
<rect class="f" x="645" y="150" width="11" height="11" rx="2.5" fill="#39d353"/>
<rect class="f" x="658" y="150" width="11" height="11" rx="2.5" fill="#69f0a0"/>
<text class="f" x="585" y="159" font-size="11" fill="#8b949e" text-anchor="end">Less</text>
</svg>
